<?xml version="1.0" encoding="UTF-8" standalone="no"?>
<svg
   xmlns:dc="http://purl.org/dc/elements/1.1/"
   xmlns:cc="http://creativecommons.org/ns#"
   xmlns:rdf="http://www.w3.org/1999/02/22-rdf-syntax-ns#"
   xmlns:svg="http://www.w3.org/2000/svg"
   xmlns="http://www.w3.org/2000/svg"
   xmlns:sodipodi="http://sodipodi.sourceforge.net/DTD/sodipodi-0.dtd"
   xmlns:inkscape="http://www.inkscape.org/namespaces/inkscape"
   width="15.875198mm"
   height="21.643747mm"
   viewBox="0 0 15.875198 21.643747"
   version="1.1"
   id="svg8"
   inkscape:version="0.92.5 (2060ec1f9f, 2020-04-08)"
   sodipodi:docname="logo.svg">
  <defs
     id="defs2" />
  <sodipodi:namedview
     id="base"
     pagecolor="#ffffff"
     bordercolor="#666666"
     borderopacity="1.0"
     inkscape:pageopacity="0.0"
     inkscape:pageshadow="2"
     inkscape:zoom="4"
     inkscape:cx="-15.308605"
     inkscape:cy="23.858452"
     inkscape:document-units="mm"
     inkscape:current-layer="layer1"
     inkscape:document-rotation="0"
     showgrid="false"
     inkscape:window-width="1920"
     inkscape:window-height="1031"
     inkscape:window-x="-8"
     inkscape:window-y="-8"
     inkscape:window-maximized="1" />
  <metadata
     id="metadata5">
    <rdf:RDF>
      <cc:Work
         rdf:about="">
        <dc:format>image/svg+xml</dc:format>
        <dc:type
           rdf:resource="http://purl.org/dc/dcmitype/StillImage" />
        <dc:title />
      </cc:Work>
    </rdf:RDF>
  </metadata>
  <g
     inkscape:label="Слой 1"
     inkscape:groupmode="layer"
     id="layer1"
     style="display:inline"
     transform="translate(-17.788381,-36.386617)">
    <path
       id="path847"
       style="display:inline;fill:#000000;fill-opacity:1;stroke:#000000;stroke-width:1.10000002;stroke-linecap:round;stroke-linejoin:round;stroke-miterlimit:4;stroke-dasharray:none;stroke-opacity:1;paint-order:stroke markers fill"
       d="m 76.095703,138.07422 c 3.305469,3.93457 5.763684,11.53123 4.992188,17.70898 -0.723202,5.79104 -1.521147,7.92039 -5.212891,16.71289 -2.730561,6.50328 -7.489502,12.54872 -8.019531,19.58203 -0.431656,5.72795 1.053178,11.85373 4.066406,16.74415 2.289048,3.71508 5.883736,6.96179 9.974609,8.48046 4.78757,1.77731 10.623252,2.10001 15.320313,0.0957 4.885433,-2.08468 8.494043,-7.12274 10.953123,-11.57227 3.30026,-5.49785 3.16145,-17.32624 3.30274,-18.32617 l 5.88867,-2.67383 c 0.20867,0.24382 1.35799,6.38854 0.37695,9.34961 -0.71071,2.14515 -3.75452,4.88246 -4.26367,5.27149 -0.9374,7.80295 -6.96875,15.55664 -6.96875,15.55664 0,0 14.70826,-7.18306 18.4043,-13.93164 2.16553,-3.95405 2.10943,-9.09514 1.07226,-13.48243 -2.22407,-9.40794 -9.10366,-17.16138 -15,-24.82226 -4.83958,-6.28788 -17.775389,-14.88281 -17.775389,-14.88281 0,0 6.968159,8.81671 9.332029,13.94726 2.6084,5.66127 3.5024,11.25458 3.26367,17.0293 -0.24124,5.83594 -0.46922,12.85928 -4.70703,16.8789 -3.494223,3.31433 -9.67685,5.03578 -14.103512,3.13868 -5.605195,-2.40218 -7.48891,-9.52575 -6.814454,-15.39649 0.793773,-6.90931 5.52334,-13.78201 7.361328,-20.95312 0.503403,-1.96408 0.994141,-6.00196 0.994141,-6.00196 0,0 2.599683,1.06358 5.6875,4.01758 3.087814,2.95401 6.662947,7.79883 7.734377,9.98633 -0.46741,-3.00575 -2.581615,-7.57806 -4.601564,-11.00195 -5.117088,-8.67367 -16.649514,-20.36167 -21.257813,-21.45508 z m 33.119137,28.26758 c 2.9044,3.37909 5.48492,8.18015 7.22266,14.14258 l -5.65625,2.53124 c -0.18323,0.082 -0.2409,-10.20749 -1.56641,-16.67382 z"
       transform="scale(0.26458333)"
       inkscape:connector-curvature="0" />
  </g>
</svg>
